# xmcd
#
# Track frame offsets: 
#        150
#        15463
#        34107
#        49986
#        66166
#        88512
#        105896
#        121777
#        137034
#        152884
#        171532
#        186303
#        203588
#        218081
#        235291
#        249674
#
# Disc length: 3545 seconds
#
# Revision: 1
# Processed by: cddbd v1.5.2PL0 Copyright (c) Steve Scherf et al.
# Submitted via: ExactAudioCopyFreeDBPlugin 1.0
#
DISCID=da0dd710
DTITLE=Various Artist - New Country - Country Hiys 2012
DYEAR=2011
DGENRE=New Country
TTITLE0=Zac Brown Band Ft. Jimmy Buffett - Knee Deep
TTITLE1=Sugarland - Stuck Like Glue
TTITLE2=Blake Shelton - Honey Bee
TTITLE3=The Band Perry - You Lie
TTITLE4=Paul Brandt - Give It Away
TTITLE5=Justin Bieber Ft. Rascal Flatts - That Should Be Me
TTITLE6=Billy Currington - Love Done Gone
TTITLE7=George Canyon - Surrender
TTITLE8=Trace Adkins - Just Fishin'
TTITLE9=Emerson Drive - Let Your Love Speak
TTITLE10=Dean Brody - People Know Your You By Your First Name
TTITLE11=Terri Clark - Northern Girl
TTITLE12=Dierks Bentley - Am I The Only One
TTITLE13=Jessie Farrell - Turn You Down
TTITLE14=Joe Nichols - Shape I'm In
TTITLE15=Alison Krauss And Union Station - Paper Airplane
EXTD=
EXTT0=
EXTT1=
EXTT2=
EXTT3=
EXTT4=
EXTT5=
EXTT6=
EXTT7=
EXTT8=
EXTT9=
EXTT10=
EXTT11=
EXTT12=
EXTT13=
EXTT14=
EXTT15=
PLAYORDER=
